<svg width="65" height="65" viewBox="0 0 65 65" fill="none" xmlns="http://www.w3.org/2000/svg">
<path fill-rule="evenodd" clip-rule="evenodd" d="M32.5 65C50.4492 65 65 50.4493 65 32.5C65 14.5507 50.4492 0 32.5 0C14.5508 0 0 14.5507 0 32.5C0 50.4493 14.5508 65 32.5 65ZM32.5 63C49.3447 63 63 49.3447 63 32.5C63 15.6553 49.3447 2 32.5 2C15.6553 2 2 15.6553 2 32.5C2 49.3447 15.6553 63 32.5 63Z" fill="url(#paint0_linear_1308_55)"/>
<path d="M21.7566 15.6313C20.6176 16.0742 19.6543 16.6649 18.691 17.6281C17.7277 18.5844 17.1371 19.5547 16.6941 20.6867C16.2652 21.7836 15.977 23.0422 15.8926 24.8844C15.8082 26.7266 15.7871 27.3172 15.7871 32.0141C15.7871 36.711 15.8082 37.3016 15.8926 39.1438C15.977 40.986 16.2723 42.2446 16.6941 43.3414C17.1371 44.4805 17.7277 45.4438 18.691 46.4071C19.6543 47.3703 20.6176 47.961 21.7566 48.4039C22.8535 48.8328 24.1121 49.1211 25.9543 49.2055C27.7965 49.2899 28.3871 49.311 33.084 49.311C37.7809 49.311 38.3715 49.2899 40.2137 49.2055C42.0559 49.1211 43.3145 48.8258 44.4113 48.4039C45.5504 47.961 46.5137 47.3703 47.477 46.4071C48.4402 45.4438 49.0309 44.4805 49.4738 43.3414C49.9027 42.2446 50.191 40.986 50.2754 39.1438C50.3598 37.3016 50.3809 36.711 50.3809 32.0141C50.3809 27.3172 50.3598 26.7266 50.2754 24.8844C50.191 23.0422 49.8957 21.7836 49.4738 20.6867C49.0309 19.5547 48.4402 18.5844 47.484 17.6281C46.5207 16.6649 45.5574 16.0742 44.4184 15.6313C43.3215 15.2024 42.0629 14.9141 40.2207 14.8297C38.3785 14.7453 37.7879 14.7242 33.091 14.7242C28.3941 14.7242 27.8035 14.7453 25.9613 14.8297C24.1121 14.9071 22.8535 15.2024 21.7566 15.6313ZM40.073 17.9375C41.7605 18.0149 42.6746 18.2961 43.2863 18.5352C44.0949 18.8516 44.6715 19.2242 45.2762 19.8289C45.8809 20.4336 46.2535 21.0102 46.5699 21.8188C46.809 22.4305 47.0902 23.3446 47.1676 25.0321C47.252 26.8532 47.266 27.4016 47.266 32.0211C47.266 36.6407 47.2449 37.1891 47.1676 39.0102C47.0902 40.6977 46.809 41.6117 46.5699 42.2235C46.2535 43.0321 45.8809 43.6086 45.2762 44.2133C44.6715 44.818 44.0949 45.1907 43.2863 45.5071C42.6746 45.7461 41.7605 46.0274 40.073 46.1047C38.252 46.1891 37.7035 46.2032 33.084 46.2032C28.4645 46.2032 27.916 46.1821 26.0949 46.1047C24.4074 46.0274 23.4934 45.7461 22.8816 45.5071C22.073 45.1907 21.4965 44.818 20.8918 44.2133C20.2871 43.6086 19.9145 43.0321 19.598 42.2235C19.359 41.6117 19.0777 40.6977 19.0004 39.0102C18.916 37.1891 18.902 36.6407 18.902 32.0211C18.902 27.4016 18.923 26.8532 19.0004 25.0321C19.0777 23.3446 19.359 22.4305 19.598 21.8188C19.9145 21.0102 20.2871 20.4336 20.8918 19.8289C21.4965 19.2242 22.073 18.8516 22.8816 18.5352C23.4934 18.2961 24.4074 18.0149 26.0949 17.9375C27.916 17.8531 28.4645 17.8391 33.084 17.8391C37.7035 17.8391 38.252 17.8531 40.073 17.9375Z" fill="url(#paint1_radial_1308_55)"/>
<path d="M24.2031 32.0211C24.2031 36.9289 28.1828 40.9016 33.0836 40.9016C37.9844 40.9016 41.9641 36.9219 41.9641 32.0211C41.9641 27.1203 37.9914 23.1406 33.0836 23.1406C28.1758 23.1406 24.2031 27.1133 24.2031 32.0211ZM38.8492 32.0211C38.8492 35.2062 36.2687 37.7867 33.0836 37.7867C29.8984 37.7867 27.318 35.2062 27.318 32.0211C27.318 28.8359 29.8984 26.2555 33.0836 26.2555C36.2687 26.2555 38.8492 28.8359 38.8492 32.0211Z" fill="url(#paint2_radial_1308_55)"/>
<path d="M42.3232 24.8633C43.4688 24.8633 44.3975 23.9346 44.3975 22.7891C44.3975 21.6435 43.4688 20.7148 42.3232 20.7148C41.1777 20.7148 40.249 21.6435 40.249 22.7891C40.249 23.9346 41.1777 24.8633 42.3232 24.8633Z" fill="#654C9F"/>
<defs>
<linearGradient id="paint0_linear_1308_55" x1="55.5" y1="10.5" x2="11" y2="55.5" gradientUnits="userSpaceOnUse">
<stop stop-color="#6F53B9"/>
<stop offset="0.380208" stop-color="#B33588"/>
<stop offset="0.770833" stop-color="#F57435"/>
<stop offset="1" stop-color="#FCBE67"/>
</linearGradient>
<radialGradient id="paint1_radial_1308_55" cx="0" cy="0" r="1" gradientUnits="userSpaceOnUse" gradientTransform="translate(16.4165 46.1444) rotate(-3.00009) scale(50.0143 42.5116)">
<stop stop-color="#FED576"/>
<stop offset="0.2634" stop-color="#F47133"/>
<stop offset="0.6091" stop-color="#BC3081"/>
<stop offset="1" stop-color="#4C63D2"/>
</radialGradient>
<radialGradient id="paint2_radial_1308_55" cx="0" cy="0" r="1" gradientUnits="userSpaceOnUse" gradientTransform="translate(24.5252 39.2729) rotate(-3.00009) scale(25.683 21.8303)">
<stop stop-color="#FED576"/>
<stop offset="0.2634" stop-color="#F47133"/>
<stop offset="0.6091" stop-color="#BC3081"/>
<stop offset="1" stop-color="#4C63D2"/>
</radialGradient>
</defs>
</svg>
