<svg width="16" height="16" viewBox="0 0 16 16" fill="none" xmlns="http://www.w3.org/2000/svg">
<path d="M8 16C12.405 16 16 12.4047 16 8C16 3.595 12.4047 0 8 0C3.59503 0 0 3.59528 0 8C0 12.405 3.59528 16 8 16ZM10.3733 14.6518C10.8266 14.0726 11.1741 13.3817 11.435 12.6872H13.2777C12.4969 13.5656 11.501 14.2482 10.3733 14.6518ZM13.982 11.75H11.7381C12.0147 10.7441 12.177 9.62888 12.2115 8.46875H15.0466C14.9676 9.66838 14.5878 10.787 13.982 11.75ZM13.982 4.25C14.5878 5.21297 14.9676 6.33162 15.0466 7.53125H12.2115C12.177 6.37112 12.0147 5.25587 11.7381 4.25H13.982ZM13.2777 3.3125H11.435C11.1741 2.61859 10.8267 1.92763 10.3733 1.34822C11.501 1.75181 12.4969 2.43437 13.2777 3.3125ZM8.46875 1.01769C9.38863 1.32947 10.0485 2.42347 10.426 3.3125H8.46875V1.01769ZM8.46875 4.25H10.7633C11.0614 5.23681 11.2367 6.35634 11.2737 7.53125H8.46875V4.25ZM8.46875 8.46844H11.2737C11.2367 9.64366 11.0614 10.7632 10.7633 11.75H8.46875V8.46844ZM8.46875 12.6872H10.426C10.0479 13.578 9.38788 14.6708 8.46875 14.9823V12.6872ZM2.72231 12.6875H4.565C4.82588 13.3814 5.17328 14.0724 5.62669 14.6518C4.49897 14.2482 3.50309 13.5656 2.72231 12.6875ZM7.53125 14.9823C6.61216 14.6708 5.95216 13.5782 5.57403 12.6875H7.53125V14.9823ZM7.53125 11.75H5.23666C4.93859 10.7632 4.76325 9.64366 4.72634 8.46875H7.53125V11.75ZM7.53125 7.53125H4.72634C4.76325 6.35634 4.93859 5.23681 5.23666 4.25H7.53125V7.53125ZM7.53125 1.01769V3.3125H5.57403C5.95213 2.42194 6.61209 1.32922 7.53125 1.01769ZM5.62666 1.34822C5.17337 1.92744 4.82597 2.61828 4.56497 3.3125H2.72231C3.50309 2.43437 4.49897 1.75178 5.62666 1.34822ZM2.01803 4.24969H4.26191C3.98528 5.25588 3.823 6.37112 3.7885 7.53125H0.953438C1.03244 6.33162 1.41219 5.21297 2.01803 4.24969ZM0.953438 8.46875H3.7885C3.823 9.62888 3.98528 10.7441 4.26191 11.75H2.01803C1.41219 10.787 1.03244 9.66838 0.953438 8.46875Z" fill="#1E1F1F"/>
</svg>
