<svg width="65" height="65" viewBox="0 0 65 65" fill="none" xmlns="http://www.w3.org/2000/svg">
<path fill-rule="evenodd" clip-rule="evenodd" d="M32.5 65C50.4492 65 65 50.4493 65 32.5C65 14.5507 50.4492 0 32.5 0C14.5508 0 0 14.5507 0 32.5C0 50.4493 14.5508 65 32.5 65ZM32.5 63C49.3447 63 63 49.3447 63 32.5C63 15.6553 49.3447 2 32.5 2C15.6553 2 2 15.6553 2 32.5C2 49.3447 15.6553 63 32.5 63Z" fill="#FF0000"/>
<path d="M49.8046 23.1364C49.3696 21.5456 48.1149 20.3 46.5065 19.8745C44.346 19.0496 23.4197 18.6455 17.3493 19.8982C15.7408 20.3284 14.4813 21.5693 14.0512 23.16C13.0761 27.3909 13.002 36.5382 14.0751 40.8636C14.51 42.4544 15.7647 43.7 17.3732 44.1255C21.6512 45.0993 41.9895 45.2364 46.5304 44.1255C48.1388 43.6953 49.3983 42.4544 49.8285 40.8636C50.8681 36.2545 50.9422 27.6745 49.8046 23.1364Z" fill="#FF0000"/>
<path d="M38.0947 32L28.3438 26.4691V37.5309L38.0947 32Z" fill="white"/>
</svg>
